g Crown
v 2.10293 -0.7300994 -1.641221
v 2.125364 0.5702214 -1.221691
v 2.459822 0.99738 0.816376
v 2.475976 -1.289085 0.09415507
v 0.5557361 -0.4160123 -2.638224
v 0.5462239 1.870452 -1.891145
v 2.125364 0.5702214 -1.221691
v 2.10293 -0.7300994 -1.641221
v -1.285981 -0.5290837 -2.280344
v -1.270187 0.7712371 -1.885671
v 0.5462239 1.870452 -1.891145
v 0.5557361 -0.4160123 -2.638224
v -2.317264 -1.006406 -0.7824173
v -2.312239 1.279969 -0.09241271
v -1.270187 0.7712371 -1.885671
v -1.285981 -0.5290837 -2.280344
v -1.950949 -1.565482 0.9281013
v -1.949782 -0.2589686 1.379848
v -2.312239 1.279969 -0.09241271
v -2.317264 -1.006406 -0.7824173
v -0.4037552 -1.873287 1.925104
v -0.4132676 0.4068961 2.672183
v -1.949782 -0.2589686 1.379848
v -1.950949 -1.565482 0.9281013
v 1.444603 -1.760216 1.592082
v 1.432578 -0.4599845 1.994203
v -0.4132676 0.4068961 2.672183
v -0.4037552 -1.873287 1.925104
v 2.475976 -1.289085 0.09415507
v 2.459822 0.99738 0.816376
v 1.432578 -0.4599845 1.994203
v 1.444603 -1.760216 1.592082
v 2.125364 0.5702214 -1.221691
v 2.404992 0.633039 -1.402605
v 2.833407 0.9785347 0.8763218
v 2.459822 0.99738 0.816376
v 0.5462239 1.870452 -1.891145
v 0.6271687 1.977242 -2.258358
v 2.404992 0.633039 -1.402605
v 2.125364 0.5702214 -1.221691
v -1.270187 0.7712371 -1.885671
v -1.501984 0.8654635 -2.196169
v 0.6271687 1.977242 -2.258358
v 0.5462239 1.870452 -1.891145
v -2.312239 1.279969 -0.09241271
v -2.685823 1.298814 -0.1523585
v -1.501984 0.8654635 -2.196169
v -1.270187 0.7712371 -1.885671
v -1.949782 -0.2589686 1.379848
v -2.257139 -0.3280678 1.568121
v -2.685823 1.298814 -0.1523585
v -2.312239 1.279969 -0.09241271
v -0.4132676 0.4068961 2.672183
v -0.4730339 0.2938247 3.007179
v -2.257139 -0.3280678 1.568121
v -1.949782 -0.2589686 1.379848
v 1.432578 -0.4599845 1.994203
v 1.629914 -0.5542107 2.287291
v -0.4730339 0.2938247 3.007179
v -0.4132676 0.4068961 2.672183
v 2.459822 0.99738 0.816376
v 2.833407 0.9785347 0.8763218
v 1.629914 -0.5542107 2.287291
v 1.432578 -0.4599845 1.994203
v 2.404992 0.633039 -1.402605
v 2.40903 -0.3343496 -1.722794
v 2.826945 -0.9749976 0.2931068
v 2.833407 0.9785347 0.8763218
v 0.6271687 1.977242 -2.258358
v 0.6419756 0.02370977 -2.873879
v 2.40903 -0.3343496 -1.722794
v 2.404992 0.633039 -1.402605
v -1.501984 0.8654635 -2.196169
v -1.484664 -0.1082067 -2.466732
v 0.6419756 0.02370977 -2.873879
v 0.6271687 1.977242 -2.258358
v -2.685823 1.298814 -0.1523585
v -2.677657 -0.6547184 -0.7927375
v -1.484664 -0.1082067 -2.466732
v -1.501984 0.8654635 -2.196169
v -2.257139 -0.3280678 1.568121
v -2.2531 -1.295367 1.247932
v -2.677657 -0.6547184 -0.7927375
v -2.685823 1.298814 -0.1523585
v -0.4730339 0.2938247 3.007179
v -0.4648676 -1.665989 2.3668
v -2.2531 -1.295367 1.247932
v -2.257139 -0.3280678 1.568121
v 1.629914 -0.5542107 2.287291
v 1.647234 -1.527791 2.016727
v -0.4648676 -1.665989 2.3668
v -0.4730339 0.2938247 3.007179
v 2.833407 0.9785347 0.8763218
v 2.826945 -0.9749976 0.2931068
v 1.647234 -1.527791 2.016727
v 1.629914 -0.5542107 2.287291
v 2.40903 -0.3343496 -1.722794
v 2.10293 -0.7300994 -1.641221
v 2.475976 -1.289085 0.09415507
v 2.826945 -0.9749976 0.2931068
v 0.6419756 0.02370977 -2.873879
v 0.5557361 -0.4160123 -2.638224
v 2.10293 -0.7300994 -1.641221
v 2.40903 -0.3343496 -1.722794
v -1.484664 -0.1082067 -2.466732
v -1.285981 -0.5290837 -2.280344
v 0.5557361 -0.4160123 -2.638224
v 0.6419756 0.02370977 -2.873879
v -2.677657 -0.6547184 -0.7927375
v -2.317264 -1.006406 -0.7824173
v -1.285981 -0.5290837 -2.280344
v -1.484664 -0.1082067 -2.466732
v -2.2531 -1.295367 1.247932
v -1.950949 -1.565482 0.9281013
v -2.317264 -1.006406 -0.7824173
v -2.677657 -0.6547184 -0.7927375
v -0.4648676 -1.665989 2.3668
v -0.4037552 -1.873287 1.925104
v -1.950949 -1.565482 0.9281013
v -2.2531 -1.295367 1.247932
v 1.647234 -1.527791 2.016727
v 1.444603 -1.760216 1.592082
v -0.4037552 -1.873287 1.925104
v -0.4648676 -1.665989 2.3668
v 2.826945 -0.9749976 0.2931068
v 2.475976 -1.289085 0.09415507
v 1.444603 -1.760216 1.592082
v 1.647234 -1.527791 2.016727
v -2.696502 -0.03910756 0.1429732
v -2.822227 0.8214912 -0.3287857
v -2.379812 0.8026459 -0.2339315
v -2.254087 -0.07051635 0.2378275
v -2.822227 0.8214912 -0.3287857
v -2.437784 0.3692057 -1.122529
v -2.001831 0.3377969 -1.052532
v -2.379812 0.8026459 -0.2339315
v -2.437784 0.3692057 -1.122529
v -2.844661 -0.4851115 -0.7482266
v -2.374338 -0.5102384 -0.6608207
v -2.001831 0.3377969 -1.052532
v -2.844661 -0.4851115 -0.7482266
v -2.696502 -0.03910756 0.1429732
v -2.254087 -0.07051635 0.2378275
v -2.374338 -0.5102384 -0.6608207
v -2.844661 -0.4851115 -0.7482266
v -2.822227 0.8214912 -0.3287857
v -2.696502 -0.03910756 0.1429732
v -2.844661 -0.4851115 -0.7482266
v -2.437784 0.3692057 -1.122529
v -2.822227 0.8214912 -0.3287857
vt 0.3497301 0.9658553
vt 0.3497301 0.9658553
vt 0.3497301 0.9658553
vt 0.3497301 0.9658553
vt 0.3497301 0.9658553
vt 0.3497301 0.9658553
vt 0.3497301 0.9658553
vt 0.3497301 0.9658553
vt 0.3497301 0.9658553
vt 0.3497301 0.9658553
vt 0.3497301 0.9658553
vt 0.3497301 0.9658553
vt 0.3497301 0.9658553
vt 0.3497301 0.9658553
vt 0.3497301 0.9658553
vt 0.3497301 0.9658553
vt 0.3497301 0.9658553
vt 0.3497301 0.9658553
vt 0.3497301 0.9658553
vt 0.3497301 0.9658553
vt 0.3497301 0.9658553
vt 0.3497301 0.9658553
vt 0.3497301 0.9658553
vt 0.3497301 0.9658553
vt 0.3497301 0.9658553
vt 0.3497301 0.9658553
vt 0.3497301 0.9658553
vt 0.3497301 0.9658553
vt 0.3497301 0.9658553
vt 0.3497301 0.9658553
vt 0.3497301 0.9658553
vt 0.3497301 0.9658553
vt 0.3497301 0.9658553
vt 0.3497301 0.9658553
vt 0.3497301 0.9658553
vt 0.3497301 0.9658553
vt 0.3497301 0.9658553
vt 0.3497301 0.9658553
vt 0.3497301 0.9658553
vt 0.3497301 0.9658553
vt 0.3497301 0.9658553
vt 0.3497301 0.9658553
vt 0.3497301 0.9658553
vt 0.3497301 0.9658553
vt 0.3497301 0.9658553
vt 0.3497301 0.9658553
vt 0.3497301 0.9658553
vt 0.3497301 0.9658553
vt 0.3497301 0.9658553
vt 0.3497301 0.9658553
vt 0.3497301 0.9658553
vt 0.3497301 0.9658553
vt 0.3497301 0.9658553
vt 0.3497301 0.9658553
vt 0.3497301 0.9658553
vt 0.3497301 0.9658553
vt 0.3497301 0.9658553
vt 0.3497301 0.9658553
vt 0.3497301 0.9658553
vt 0.3497301 0.9658553
vt 0.3497301 0.9658553
vt 0.3497301 0.9658553
vt 0.3497301 0.9658553
vt 0.3497301 0.9658553
vt 0.3497301 0.9658553
vt 0.3497301 0.9658553
vt 0.3497301 0.9658553
vt 0.3497301 0.9658553
vt 0.3497301 0.9658553
vt 0.3497301 0.9658553
vt 0.3497301 0.9658553
vt 0.3497301 0.9658553
vt 0.3497301 0.9658553
vt 0.3497301 0.9658553
vt 0.3497301 0.9658553
vt 0.3497301 0.9658553
vt 0.3497301 0.9658553
vt 0.3497301 0.9658553
vt 0.3497301 0.9658553
vt 0.3497301 0.9658553
vt 0.3497301 0.9658553
vt 0.3497301 0.9658553
vt 0.3497301 0.9658553
vt 0.3497301 0.9658553
vt 0.3497301 0.9658553
vt 0.3497301 0.9658553
vt 0.3497301 0.9658553
vt 0.3497301 0.9658553
vt 0.3497301 0.9658553
vt 0.3497301 0.9658553
vt 0.3497301 0.9658553
vt 0.3497301 0.9658553
vt 0.3497301 0.9658553
vt 0.3497301 0.9658553
vt 0.3497301 0.9658553
vt 0.3497301 0.9658553
vt 0.3497301 0.9658553
vt 0.3497301 0.9658553
vt 0.3497301 0.9658553
vt 0.3497301 0.9658553
vt 0.3497301 0.9658553
vt 0.3497301 0.9658553
vt 0.3497301 0.9658553
vt 0.3497301 0.9658553
vt 0.3497301 0.9658553
vt 0.3497301 0.9658553
vt 0.3497301 0.9658553
vt 0.3497301 0.9658553
vt 0.3497301 0.9658553
vt 0.3497301 0.9658553
vt 0.3497301 0.9658553
vt 0.3497301 0.9658553
vt 0.3497301 0.9658553
vt 0.3497301 0.9658553
vt 0.3497301 0.9658553
vt 0.3497301 0.9658553
vt 0.3497301 0.9658553
vt 0.3497301 0.9658553
vt 0.3497301 0.9658553
vt 0.3497301 0.9658553
vt 0.3497301 0.9658553
vt 0.3497301 0.9658553
vt 0.3497301 0.9658553
vt 0.3497301 0.9658553
vt 0.3497301 0.9658553
vt 0.3497301 0.9658553
vt 0.3497301 0.9658553
vt 0.3497301 0.9658553
vt 0.5743779 0.6370143
vt 0.5743779 0.6370143
vt 0.5743779 0.6370143
vt 0.5743779 0.6370143
vt 0.5743779 0.6370143
vt 0.5743779 0.6370143
vt 0.5743779 0.6370143
vt 0.5743779 0.6370143
vt 0.5743779 0.6370143
vt 0.5743779 0.6370143
vt 0.5743779 0.6370143
vt 0.5743779 0.6370143
vt 0.5743779 0.6370143
vt 0.5743779 0.6370143
vt 0.5743779 0.6370143
vt 0.5743779 0.6370143
vt 0.5743779 0.6370143
vt 0.5743779 0.6370143
vt 0.5743779 0.6370143
vt 0.5743779 0.6370143
vt 0.5743779 0.6370143
vt 0.5743779 0.6370143
vn -0.9826505 -0.05679154 0.1765579
vn -0.9826505 -0.05679154 0.1765579
vn -0.9826505 -0.05679154 0.1765579
vn -0.9826505 -0.05679154 0.1765579
vn -0.5514746 -0.2569804 0.7936226
vn -0.5514746 -0.2569804 0.7936226
vn -0.5514746 -0.2569804 0.7936226
vn -0.5514746 -0.2569804 0.7936226
vn 0.1953838 -0.2954782 0.9351565
vn 0.1953838 -0.2954782 0.9351565
vn 0.1953838 -0.2954782 0.9351565
vn 0.1953838 -0.2954782 0.9351565
vn 0.8344482 -0.1645855 0.5259351
vn 0.8344482 -0.1645855 0.5259351
vn 0.8344482 -0.1645855 0.5259351
vn 0.8344482 -0.1645855 0.5259351
vn 0.9807401 0.05870199 -0.1862875
vn 0.9807401 0.05870199 -0.1862875
vn 0.9807401 0.05870199 -0.1862875
vn 0.9807401 0.05870199 -0.1862875
vn 0.5572637 0.2665905 -0.7863756
vn 0.5572637 0.2665905 -0.7863756
vn 0.5572637 0.2665905 -0.7863756
vn 0.5572637 0.2665905 -0.7863756
vn -0.1972944 0.2973887 -0.9341493
vn -0.1972944 0.2973887 -0.9341493
vn -0.1972944 0.2973887 -0.9341493
vn -0.1972944 0.2973887 -0.9341493
vn -0.8363587 0.1587964 -0.5246788
vn -0.8363587 0.1587964 -0.5246788
vn -0.8363587 0.1587964 -0.5246788
vn -0.8363587 0.1587964 -0.5246788
vn -0.09719992 0.9826505 -0.1579562
vn -0.09719992 0.9826505 -0.1579562
vn -0.09719992 0.9826505 -0.1579562
vn -0.09719992 0.9826505 -0.1579562
vn 0.3878731 0.7747622 0.4992975
vn 0.3878731 0.7747622 0.4992975
vn 0.3878731 0.7747622 0.4992975
vn 0.3878731 0.7747622 0.4992975
vn -0.4513801 0.8209596 0.3496875
vn -0.4513801 0.8209596 0.3496875
vn -0.4513801 0.8209596 0.3496875
vn -0.4513801 0.8209596 0.3496875
vn 0.2415813 0.9672514 -0.07786632
vn 0.2415813 0.9672514 -0.07786632
vn 0.2415813 0.9672514 -0.07786632
vn 0.2415813 0.9672514 -0.07786632
vn 0.07989025 0.7208651 0.6884555
vn 0.07989025 0.7208651 0.6884555
vn 0.07989025 0.7208651 0.6884555
vn 0.07989025 0.7208651 0.6884555
vn -0.3897307 0.920929 0
vn -0.3897307 0.920929 0
vn -0.3897307 0.920929 0
vn -0.3897307 0.920929 0
vn 0.4494697 0.8748566 0.1805627
vn 0.4494697 0.8748566 0.1805627
vn 0.4494697 0.8748566 0.1805627
vn 0.4494697 0.8748566 0.1805627
vn -0.2434918 0.7362642 0.6313689
vn -0.2434918 0.7362642 0.6313689
vn -0.2434918 0.7362642 0.6313689
vn -0.2434918 0.7362642 0.6313689
vn 0.9807401 0.05870199 -0.1862875
vn 0.9807401 0.05870199 -0.1862875
vn 0.9807401 0.05870199 -0.1862875
vn 0.9807401 0.05870199 -0.1862875
vn 0.5649632 0.2511913 -0.7859513
vn 0.5649632 0.2511913 -0.7859513
vn 0.5649632 0.2511913 -0.7859513
vn 0.5649632 0.2511913 -0.7859513
vn -0.1895947 0.2819896 -0.9404976
vn -0.1895947 0.2819896 -0.9404976
vn -0.1895947 0.2819896 -0.9404976
vn -0.1895947 0.2819896 -0.9404976
vn -0.8363587 0.1587964 -0.5246788
vn -0.8363587 0.1587964 -0.5246788
vn -0.8363587 0.1587964 -0.5246788
vn -0.8363587 0.1587964 -0.5246788
vn -0.9826505 -0.06449109 0.1738932
vn -0.9826505 -0.06449109 0.1738932
vn -0.9826505 -0.06449109 0.1738932
vn -0.9826505 -0.06449109 0.1738932
vn -0.5514746 -0.26468 0.791088
vn -0.5514746 -0.26468 0.791088
vn -0.5514746 -0.26468 0.791088
vn -0.5514746 -0.26468 0.791088
vn 0.1876842 -0.2877787 0.9391263
vn 0.1876842 -0.2877787 0.9391263
vn 0.1876842 -0.2877787 0.9391263
vn 0.1876842 -0.2877787 0.9391263
vn 0.8344482 -0.1491864 0.5305088
vn 0.8344482 -0.1491864 0.5305088
vn 0.8344482 -0.1491864 0.5305088
vn 0.8344482 -0.1491864 0.5305088
vn 0.7189547 -0.6034611 -0.3448752
vn 0.7189547 -0.6034611 -0.3448752
vn 0.7189547 -0.6034611 -0.3448752
vn 0.7189547 -0.6034611 -0.3448752
vn 0.4032723 -0.4879675 -0.7741183
vn 0.4032723 -0.4879675 -0.7741183
vn 0.4032723 -0.4879675 -0.7741183
vn 0.4032723 -0.4879675 -0.7741183
vn -0.1433973 -0.4494697 -0.8817109
vn -0.1433973 -0.4494697 -0.8817109
vn -0.1433973 -0.4494697 -0.8817109
vn -0.1433973 -0.4494697 -0.8817109
vn -0.5745733 -0.5649632 -0.5921842
vn -0.5745733 -0.5649632 -0.5921842
vn -0.5745733 -0.5649632 -0.5921842
vn -0.5745733 -0.5649632 -0.5921842
vn -0.6977664 -0.7112551 -0.08507802
vn -0.6977664 -0.7112551 -0.08507802
vn -0.6977664 -0.7112551 -0.08507802
vn -0.6977664 -0.7112551 -0.08507802
vn -0.3897836 -0.8498474 0.3547226
vn -0.3897836 -0.8498474 0.3547226
vn -0.3897836 -0.8498474 0.3547226
vn -0.3897836 -0.8498474 0.3547226
vn 0.1337873 -0.8960448 0.4233258
vn 0.1337873 -0.8960448 0.4233258
vn 0.1337873 -0.8960448 0.4233258
vn 0.1337873 -0.8960448 0.4233258
vn 0.5957615 -0.7882508 0.1540417
vn 0.5957615 -0.7882508 0.1540417
vn 0.5957615 -0.7882508 0.1540417
vn 0.5957615 -0.7882508 0.1540417
vn -0.1587964 0.4513801 0.8780887
vn -0.1587964 0.4513801 0.8780887
vn -0.1587964 0.4513801 0.8780887
vn -0.1587964 0.4513801 0.8780887
vn 0.1337873 0.8902557 -0.4353685
vn 0.1337873 0.8902557 -0.4353685
vn 0.1337873 0.8902557 -0.4353685
vn 0.1337873 0.8902557 -0.4353685
vn 0.1260877 -0.4571692 -0.8803966
vn 0.1260877 -0.4571692 -0.8803966
vn 0.1260877 -0.4571692 -0.8803966
vn 0.1260877 -0.4571692 -0.8803966
vn -0.1433973 -0.8806456 0.4515534
vn -0.1433973 -0.8806456 0.4515534
vn -0.1433973 -0.8806456 0.4515534
vn -0.1433973 -0.8806456 0.4515534
vn -0.9826505 -0.04139239 0.1807889
vn -0.9826505 -0.04139239 0.1807889
vn -0.9826505 -0.04139239 0.1807889
vn -0.8440583 0.1741955 -0.5071701
vn -0.8440583 0.1741955 -0.5071701
vn -0.8440583 0.1741955 -0.5071701
g Crown_0
f 3/3/3 2/2/2 1/1/1
f 4/4/4 3/3/3 1/1/1
f 7/7/7 6/6/6 5/5/5
f 8/8/8 7/7/7 5/5/5
f 11/11/11 10/10/10 9/9/9
f 12/12/12 11/11/11 9/9/9
f 15/15/15 14/14/14 13/13/13
f 16/16/16 15/15/15 13/13/13
f 19/19/19 18/18/18 17/17/17
f 20/20/20 19/19/19 17/17/17
f 23/23/23 22/22/22 21/21/21
f 24/24/24 23/23/23 21/21/21
f 27/27/27 26/26/26 25/25/25
f 28/28/28 27/27/27 25/25/25
f 31/31/31 30/30/30 29/29/29
f 32/32/32 31/31/31 29/29/29
f 35/35/35 34/34/34 33/33/33
f 36/36/36 35/35/35 33/33/33
f 39/39/39 38/38/38 37/37/37
f 40/40/40 39/39/39 37/37/37
f 43/43/43 42/42/42 41/41/41
f 44/44/44 43/43/43 41/41/41
f 47/47/47 46/46/46 45/45/45
f 48/48/48 47/47/47 45/45/45
f 51/51/51 50/50/50 49/49/49
f 52/52/52 51/51/51 49/49/49
f 55/55/55 54/54/54 53/53/53
f 56/56/56 55/55/55 53/53/53
f 59/59/59 58/58/58 57/57/57
f 60/60/60 59/59/59 57/57/57
f 63/63/63 62/62/62 61/61/61
f 64/64/64 63/63/63 61/61/61
f 67/67/67 66/66/66 65/65/65
f 68/68/68 67/67/67 65/65/65
f 71/71/71 70/70/70 69/69/69
f 72/72/72 71/71/71 69/69/69
f 75/75/75 74/74/74 73/73/73
f 76/76/76 75/75/75 73/73/73
f 79/79/79 78/78/78 77/77/77
f 80/80/80 79/79/79 77/77/77
f 83/83/83 82/82/82 81/81/81
f 84/84/84 83/83/83 81/81/81
f 87/87/87 86/86/86 85/85/85
f 88/88/88 87/87/87 85/85/85
f 91/91/91 90/90/90 89/89/89
f 92/92/92 91/91/91 89/89/89
f 95/95/95 94/94/94 93/93/93
f 96/96/96 95/95/95 93/93/93
f 99/99/99 98/98/98 97/97/97
f 100/100/100 99/99/99 97/97/97
f 103/103/103 102/102/102 101/101/101
f 104/104/104 103/103/103 101/101/101
f 107/107/107 106/106/106 105/105/105
f 108/108/108 107/107/107 105/105/105
f 111/111/111 110/110/110 109/109/109
f 112/112/112 111/111/111 109/109/109
f 115/115/115 114/114/114 113/113/113
f 116/116/116 115/115/115 113/113/113
f 119/119/119 118/118/118 117/117/117
f 120/120/120 119/119/119 117/117/117
f 123/123/123 122/122/122 121/121/121
f 124/124/124 123/123/123 121/121/121
f 127/127/127 126/126/126 125/125/125
f 128/128/128 127/127/127 125/125/125
f 131/131/131 130/130/130 129/129/129
f 132/132/132 131/131/131 129/129/129
f 135/135/135 134/134/134 133/133/133
f 136/136/136 135/135/135 133/133/133
f 139/139/139 138/138/138 137/137/137
f 140/140/140 139/139/139 137/137/137
f 143/143/143 142/142/142 141/141/141
f 144/144/144 143/143/143 141/141/141
f 147/147/147 146/146/146 145/145/145
f 150/150/150 149/149/149 148/148/148
